 <svg xmlns="http://www.w3.org/2000/svg" xmlns:xlink="http://www.w3.org/1999/xlink"
                                            width="23.048" height="23.048" viewBox="0 0 23.048 23.048">
                                            <defs>
                                                <clipPath id="clip-path">
                                                    <path id="_Icon_小olor" data-name=" Icon 小olor"
                                                        d="M17.286,23.048H5.762A3.461,3.461,0,0,1,2.3,19.591V6.915H1.152a1.153,1.153,0,0,1,0-2.306H6.915V2.683A2.79,2.79,0,0,1,9.795,0h3.458a2.791,2.791,0,0,1,2.881,2.683V4.609H21.9a1.153,1.153,0,0,1,0,2.306H20.743V19.591A3.461,3.461,0,0,1,17.286,23.048ZM4.609,6.915V19.591a1.154,1.154,0,0,0,1.153,1.152H17.286a1.154,1.154,0,0,0,1.152-1.152V6.915ZM9.795,2.3c-.329,0-.576.2-.576.379V4.609h4.609V2.683c0-.179-.246-.379-.576-.379Zm5.186,14.982a1.154,1.154,0,0,1-1.152-1.152v-4.61a1.153,1.153,0,0,1,2.306,0v4.61A1.154,1.154,0,0,1,14.981,17.286Zm-6.914,0a1.154,1.154,0,0,1-1.152-1.152v-4.61a1.152,1.152,0,1,1,2.3,0v4.61A1.154,1.154,0,0,1,8.067,17.286Z"
                                                        transform="translate(0 0)" fill="#2502b4" />
                                                </clipPath>
                                            </defs>
                                            <g id="_01_Icons_Line_arrow-circle-down_Copy" onclick="alert('s')"
                                                data-name="01) Icons/Line/arrow-circle-down Copy"
                                                transform="translate(-2.305 -2.305)" opacity="0.4">
                                                <g id="Group_95" data-name="Group 95" transform="translate(2.305 2.305)">
                                                    <path id="_Icon_小olor-2" data-name=" Icon 小olor"
                                                        d="M17.286,23.048H5.762A3.461,3.461,0,0,1,2.3,19.591V6.915H1.152a1.153,1.153,0,0,1,0-2.306H6.915V2.683A2.79,2.79,0,0,1,9.795,0h3.458a2.791,2.791,0,0,1,2.881,2.683V4.609H21.9a1.153,1.153,0,0,1,0,2.306H20.743V19.591A3.461,3.461,0,0,1,17.286,23.048ZM4.609,6.915V19.591a1.154,1.154,0,0,0,1.153,1.152H17.286a1.154,1.154,0,0,0,1.152-1.152V6.915ZM9.795,2.3c-.329,0-.576.2-.576.379V4.609h4.609V2.683c0-.179-.246-.379-.576-.379Zm5.186,14.982a1.154,1.154,0,0,1-1.152-1.152v-4.61a1.153,1.153,0,0,1,2.306,0v4.61A1.154,1.154,0,0,1,14.981,17.286Zm-6.914,0a1.154,1.154,0,0,1-1.152-1.152v-4.61a1.152,1.152,0,1,1,2.3,0v4.61A1.154,1.154,0,0,1,8.067,17.286Z"
                                                        transform="translate(0 0)" fill="#2502b4" />
                                                </g>
                                            </g>
                                        </svg>