 <svg xmlns="http://www.w3.org/2000/svg" width="18.439" height="23.021"
                                            viewBox="0 0 18.439 23.021">
                                            <g id="_01_Icons_Line_arrow-circle-down"
                                                data-name="01) Icons/Line/arrow-circle-down"
                                                transform="translate(-4.609 -2.305)" opacity="0.4">
                                                <path id="_Icon_Сolor" data-name="🎨 Icon Сolor"
                                                    d="M17.286,23.021H1.152a1.152,1.152,0,0,1,0-2.3H17.286a1.152,1.152,0,0,1,0,2.3ZM1.152,18.412A1.152,1.152,0,0,1,0,17.156l.438-4.805a2.273,2.273,0,0,1,.657-1.4L11.465.585A2.071,2.071,0,0,1,12.951,0a2.337,2.337,0,0,1,1.644.665L17.75,3.82a2.219,2.219,0,0,1,.08,3.129L7.461,17.316a2.278,2.278,0,0,1-1.4.657l-4.806.437C1.223,18.411,1.189,18.412,1.152,18.412ZM9.2,6.109h0L2.728,12.581l-.3,3.406,3.43-.312,6.454-6.459L9.2,6.109Zm3.789-3.79h0L10.745,4.565,13.85,7.671l2.244-2.246L12.989,2.319Z"
                                                    transform="translate(4.609 2.305)" fill="#2502b4" />
                                            </g>
                                        </svg>